<svg width="176" height="25" viewBox="0 0 176 25" fill="none" xmlns="http://www.w3.org/2000/svg">
<path d="M12.3972 19.3438H6.13156L4.91281 24H0.0534363L7.16281 1.25H11.3659L18.5222 24H13.6159L12.3972 19.3438ZM7.13156 15.5156H11.3816L9.25656 7.40625L7.13156 15.5156ZM26.0534 17.4844L24.8659 18.8125V24H20.4441V0H24.8659V12.9688L25.4128 12.1562L28.4753 7.09375H33.7409L28.8347 14.0625L34.2097 24H29.1472L26.0534 17.4844ZM43.7878 24C43.6628 23.7396 43.5378 23.3021 43.4128 22.6875C42.6211 23.7708 41.5482 24.3125 40.1941 24.3125C38.7774 24.3125 37.6003 23.8438 36.6628 22.9062C35.7357 21.9688 35.2722 20.7552 35.2722 19.2656C35.2722 17.4948 35.8347 16.125 36.9597 15.1562C38.0951 14.1875 39.7253 13.6927 41.8503 13.6719H43.1941V12.3125C43.1941 11.5521 43.0639 11.0156 42.8034 10.7031C42.543 10.3906 42.1628 10.2344 41.6628 10.2344C40.5586 10.2344 40.0066 10.8802 40.0066 12.1719H35.5847C35.5847 10.6094 36.168 9.32292 37.3347 8.3125C38.5118 7.29167 39.9961 6.78125 41.7878 6.78125C43.642 6.78125 45.0743 7.26562 46.0847 8.23438C47.1055 9.19271 47.6159 10.5677 47.6159 12.3594V20.3125C47.6368 21.7708 47.8451 22.9115 48.2409 23.7344V24H43.7878ZM41.1784 20.8438C41.668 20.8438 42.0847 20.7448 42.4284 20.5469C42.7722 20.349 43.0274 20.1146 43.1941 19.8438V16.3281H42.1316C41.3816 16.3281 40.7878 16.5677 40.3503 17.0469C39.9232 17.526 39.7097 18.1667 39.7097 18.9688C39.7097 20.2188 40.1993 20.8438 41.1784 20.8438ZM50.2253 15.0312C50.2253 12.2604 50.6941 10.1927 51.6316 8.82812C52.5691 7.46354 53.9336 6.78125 55.7253 6.78125C57.0274 6.78125 58.1107 7.34375 58.9753 8.46875V0H63.4284V24H59.4128L59.2097 22.2812C58.3034 23.6354 57.1368 24.3125 55.7097 24.3125C53.9389 24.3125 52.5847 23.6354 51.6472 22.2812C50.7201 20.9271 50.2461 18.9375 50.2253 16.3125V15.0312ZM54.6628 16.1406C54.6628 17.8073 54.8399 18.974 55.1941 19.6406C55.5482 20.2969 56.1472 20.625 56.9909 20.625C57.8659 20.625 58.5274 20.2344 58.9753 19.4531V11.7344C58.5378 10.901 57.8816 10.4844 57.0066 10.4844C56.1941 10.4844 55.6003 10.8125 55.2253 11.4688C54.8503 12.125 54.6628 13.2917 54.6628 14.9688V16.1406ZM73.5222 24.3125C71.2514 24.3125 69.4805 23.6354 68.2097 22.2812C66.9389 20.9271 66.3034 18.9896 66.3034 16.4688V15.125C66.3034 12.4583 66.8868 10.401 68.0534 8.95312C69.2201 7.50521 70.892 6.78125 73.0691 6.78125C75.1941 6.78125 76.793 7.46354 77.8659 8.82812C78.9389 10.1823 79.4857 12.1927 79.5066 14.8594V17.0312H70.7097C70.7722 18.2812 71.0482 19.1979 71.5378 19.7812C72.0274 20.3542 72.7826 20.6406 73.8034 20.6406C75.2826 20.6406 76.517 20.1354 77.5066 19.125L79.2409 21.7969C78.6993 22.5469 77.9128 23.1562 76.8816 23.625C75.8503 24.0833 74.7305 24.3125 73.5222 24.3125ZM70.7409 13.9375H75.1628V13.5312C75.142 12.5208 74.9753 11.7552 74.6628 11.2344C74.3503 10.7135 73.8086 10.4531 73.0378 10.4531C72.267 10.4531 71.7045 10.7292 71.3503 11.2812C71.0066 11.8333 70.8034 12.7188 70.7409 13.9375ZM86.1628 7.09375L86.2878 8.65625C87.2774 7.40625 88.5847 6.78125 90.2097 6.78125C91.8972 6.78125 93.0899 7.54167 93.7878 9.0625C94.7566 7.54167 96.1368 6.78125 97.9284 6.78125C100.887 6.78125 102.402 8.82812 102.475 12.9219V24H98.0534V13.2031C98.0534 12.224 97.918 11.526 97.6472 11.1094C97.3764 10.6927 96.918 10.4844 96.2722 10.4844C95.4493 10.4844 94.8347 10.9896 94.4284 12L94.4597 12.5312V24H90.0378V13.2344C90.0378 12.2656 89.9076 11.5677 89.6472 11.1406C89.3868 10.7031 88.9232 10.4844 88.2566 10.4844C87.4961 10.4844 86.892 10.8958 86.4441 11.7188V24H82.0222V7.09375H86.1628Z" fill="#252420"/>
<path d="M109.803 7.09375L109.928 8.76562C110.928 7.44271 112.236 6.78125 113.85 6.78125C116.757 6.78125 118.251 8.81771 118.335 12.8906V24H113.897V13.2188C113.897 12.2604 113.751 11.5677 113.46 11.1406C113.178 10.7031 112.678 10.4844 111.96 10.4844C111.158 10.4844 110.533 10.8958 110.085 11.7188V24H105.647V7.09375H109.803ZM129.538 24C129.413 23.7396 129.288 23.3021 129.163 22.6875C128.371 23.7708 127.298 24.3125 125.944 24.3125C124.527 24.3125 123.35 23.8438 122.413 22.9062C121.486 21.9688 121.022 20.7552 121.022 19.2656C121.022 17.4948 121.585 16.125 122.71 15.1562C123.845 14.1875 125.475 13.6927 127.6 13.6719H128.944V12.3125C128.944 11.5521 128.814 11.0156 128.553 10.7031C128.293 10.3906 127.913 10.2344 127.413 10.2344C126.309 10.2344 125.757 10.8802 125.757 12.1719H121.335C121.335 10.6094 121.918 9.32292 123.085 8.3125C124.262 7.29167 125.746 6.78125 127.538 6.78125C129.392 6.78125 130.824 7.26562 131.835 8.23438C132.856 9.19271 133.366 10.5677 133.366 12.3594V20.3125C133.387 21.7708 133.595 22.9115 133.991 23.7344V24H129.538ZM126.928 20.8438C127.418 20.8438 127.835 20.7448 128.178 20.5469C128.522 20.349 128.777 20.1146 128.944 19.8438V16.3281H127.882C127.132 16.3281 126.538 16.5677 126.1 17.0469C125.673 17.526 125.46 18.1667 125.46 18.9688C125.46 20.2188 125.949 20.8438 126.928 20.8438ZM144.053 19.4688C144.053 19.0938 143.871 18.75 143.507 18.4375C143.152 18.1146 142.356 17.6823 141.116 17.1406C139.293 16.401 138.038 15.6354 137.35 14.8438C136.673 14.0521 136.335 13.0677 136.335 11.8906C136.335 10.4115 136.866 9.19271 137.928 8.23438C139.001 7.26562 140.418 6.78125 142.178 6.78125C144.033 6.78125 145.517 7.26042 146.632 8.21875C147.746 9.17708 148.303 10.4635 148.303 12.0781H143.882C143.882 10.7031 143.309 10.0156 142.163 10.0156C141.694 10.0156 141.309 10.1615 141.007 10.4531C140.704 10.7448 140.553 11.151 140.553 11.6719C140.553 12.0469 140.72 12.3802 141.053 12.6719C141.387 12.9531 142.173 13.3594 143.413 13.8906C145.215 14.5573 146.486 15.3021 147.225 16.125C147.975 16.9375 148.35 17.9948 148.35 19.2969C148.35 20.8073 147.783 22.0208 146.647 22.9375C145.512 23.8542 144.022 24.3125 142.178 24.3125C140.939 24.3125 139.845 24.0729 138.897 23.5938C137.949 23.1042 137.204 22.4271 136.663 21.5625C136.132 20.6979 135.866 19.7656 135.866 18.7656H140.069C140.09 19.5365 140.267 20.1146 140.6 20.5C140.944 20.8854 141.501 21.0781 142.272 21.0781C143.46 21.0781 144.053 20.5417 144.053 19.4688ZM155.413 8.57812C156.371 7.38021 157.548 6.78125 158.944 6.78125C160.486 6.78125 161.658 7.32292 162.46 8.40625C163.262 9.48958 163.668 11.1042 163.678 13.25V24H159.241V13.2969C159.241 12.3073 159.085 11.5938 158.772 11.1562C158.47 10.7083 157.975 10.4844 157.288 10.4844C156.486 10.4844 155.861 10.8542 155.413 11.5938V24H150.991V0H155.413V8.57812ZM175.194 11.3594L173.725 11.2344C172.517 11.2344 171.699 11.7656 171.272 12.8281V24H166.835V7.09375H171.007L171.132 8.92188C171.829 7.49479 172.793 6.78125 174.022 6.78125C174.522 6.78125 174.928 6.84896 175.241 6.98438L175.194 11.3594Z" fill="#FF7500"/>
</svg>
